<?xml version="1.0"?><svg width="501.80106" height="297.22726" xmlns="http://www.w3.org/2000/svg">
 <title>bike geometry</title>

 <metadata id="metadata7">image/svg+xmlbike geometry2009-11-14 23:12:50fzaobikegeoemtryroadbike</metadata>
 <g>
  <title>Layer 1</title>
  <g display="inline" id="layer5">
   <path fill="#ffffff" fill-rule="evenodd" stroke="#000000" stroke-width="1px" id="path3280" d="m363.42865,90.822418c13.600739,44.777985 24.544159,75.702118 40.625,106.328461c0,0 0.573303,0.966675 -0.195709,1.410645c-0.776276,0.448181 -1.174957,-0.57135 -1.369507,-0.904358c-0.443604,-0.759277 -1.132813,-4.010864 -3.193085,-2.821411c-2.108276,1.217224 0.552704,3.192505 0.566223,4.601196c0,0 -1.075775,0.939026 -1.075775,0.939026c-18.14267,-27.857056 -35.177094,-62.999878 -47.589294,-95.714264c-1.957184,-5.39801 0.178558,-9.375 0.178558,-9.375c4.341705,-1.875732 8.108978,-2.97168 12.053589,-4.464294z"/>
  </g>
  <g display="inline" id="layer7">
   <path fill="#ffffff" fill-rule="evenodd" stroke="#000000" stroke-width="1px" id="path3305" d="m111.24881,193.821167c0,0 65.253052,8.765686 96.911987,12.626282c3.430664,0.418335 10.128876,3.81311 10.128876,3.81311c-0.295197,2.279358 -0.276703,4.022949 -0.454071,6.436279c0,0 -10.202576,-0.128357 -14.845703,-0.532593c-27.796753,-2.4198 -91.436249,-15.431091 -91.436249,-15.431091l-0.30484,-6.911987z"/>
   <path fill="none" stroke="#000000" stroke-width="3" stroke-miterlimit="4" stroke-dashoffset="0" d="m229.321503,213.858154a5.53571,5.53571 0 1 1 -11.071442,0a5.53571,5.53571 0 1 1 11.071442,0z" id="path3307"/>
   <path fill="#ffffff" fill-rule="evenodd" stroke="#000000" stroke-width="1px" id="path3309" d="m111.003403,193.754822c0,0 -1.894043,0.631348 -2.841049,-0.757629c-0.947021,-1.388916 0.568207,-5.05072 0.568207,-5.05072l-4.482544,-2.39917l-2.46225,3.724976c0,0 -3.486526,0.189514 -4.293152,1.262695c-1.762955,2.345459 0.007004,6.554565 -0.631348,9.407043c-0.293274,1.311157 -1.641495,3.219849 -1.641495,4.482544c0,1.262695 0.712784,2.106628 1.515228,2.272827c1.502167,0.311157 4.166885,-0.505066 4.293137,-2.777893c0.126266,-2.272827 -0.631332,-8.20752 -0.631332,-9.217651c0,-1.04126 1.010147,-1.894043 1.641495,-1.894043c0.631348,0 0.252533,3.535522 1.262695,4.798218c1.010147,1.262695 8.144348,3.093628 8.144348,3.093628"/>
  </g>
  <g display="inline" id="layer3">
   <path fill="#ffffff" fill-rule="evenodd" stroke="#000000" stroke-width="1px" id="path2479" d="m335.888611,49.551025l14.460999,-4.5737c0,0 1.621307,-0.355652 1.909332,0.71933c0.277313,1.034912 -0.749939,2.081573 -0.749939,2.081573l11.401184,39.089813c0,0 1.792938,0.367828 2.272858,1.767761c0.473694,1.381683 -0.872101,1.772217 -0.872101,1.772217c0,0 -14.406464,5.298828 -14.406464,5.298828c0,0 -0.876953,-0.76651 -0.997955,-1.298981c-0.088501,-0.389374 0.247589,-1.172089 0.247589,-1.172089l-13.265503,-43.684753z"/>
  </g>
  <g display="inline" id="layer2">
   <path fill="#ffffff" fill-rule="evenodd" stroke="#000000" stroke-width="1px" id="path2454" d="m168.969879,52.039429c3.868225,-0.203247 6.967438,-1.560089 9.892303,-3.178375l4.240845,13.763306l154.300812,-10.354065c0,0 4.3591,1.758423 5.050751,5.050751c0.69165,3.292358 -1.073273,6.62915 -1.073273,6.62915l-155.247833,9.785858l38.504425,125.839264l-0.28186,7.054443c-2.303497,0.051208 -4.428406,0.584412 -5.571167,2.836548l-2.851898,-0.622375l-40.153564,-134.855377l-67.427673,114.399811c-0.328476,-1.767639 -1.864258,-2.437683 -4.040619,-2.525391l69.195465,-119.197998l-4.536713,-14.625549z"/>
   <path fill="#ffffff" fill-rule="evenodd" stroke="#000000" stroke-width="1px" id="path2476" d="m344.715637,75.576233c0,0 4.866974,0.111328 6.302307,6.049774c1.42865,5.910797 -1.964294,10.535706 -1.964294,10.535706c0,0 -118.571411,123.571442 -118.571411,123.571442c0,0 0.078094,-4.091492 -1.875,-6.517883c-1.953156,-2.426331 -4.117065,-2.561646 -4.117065,-2.561646l1.081329,-6.72406l119.144135,-124.353333z"/>
  </g>
  <g display="inline" id="layer4">
   <g id="g3256">
    <path fill="#ffffff" fill-rule="evenodd" stroke="#000000" stroke-width="1px" d="m329.746277,29.990845l5.799072,18.424042l14.091827,-4.360992l-1.759552,-5.322021l22.247467,-7.105865c0,0 3.602203,1.8685 6.741058,-0.3125c3.168915,-2.201874 3.733063,-5.999847 2.5,-8.482147c-1.233063,-2.4823 -4.021362,-4.781982 -7.723206,-3.660736c-3.68924,1.117432 -4.375,3.616089 -4.375,3.616089l-22.589294,7.053558l-1.339264,-4.255066l-13.593109,4.40564z" id="path2482"/>
    <path fill="#ffffff" fill-rule="nonzero" stroke="#000000" stroke-width="1.751617" stroke-miterlimit="4" stroke-dashoffset="0" id="path2484" d="m377.344269,25.783144a4.217098,4.217098 0 1 1 -8.434174,0a4.217098,4.217098 0 1 1 8.434174,0z"/>
   </g>
  </g>
  <g display="inline" id="layer9">
   <path fill="none" stroke="#000000" stroke-width="2.4" stroke-miterlimit="4" id="path3316" d="m141.375076,12.16171c0,0 3.230209,4.827229 5.357147,5.892859c2.922073,1.464001 10.178574,0.357141 10.178574,0.357141l12.678574,-3.03571l13.571426,-8.03572"/>
   <path fill="#ffffff" fill-rule="evenodd" stroke="#000000" stroke-width="1px" id="path3314" d="m134.363174,0.5l60.861679,0c0,0 12.64859,1.52469 12.64859,5.12473c0,2.9442 -3.052124,3.20903 -3.052124,3.20903c0,0 -21.594757,-0.756701 -31.127182,-0.800941c-5.175354,-0.024 -12.111053,4.04352 -17.233871,4.96782c-4.846817,0.87451 -12.055832,0.37881 -16.288712,0.37881c-4.214035,0 -11.791458,-5.34072 -11.912613,-8.33376c-0.126266,-3.1191 1.798004,-4.54569 6.104233,-4.54569z"/>
  </g>
  <g display="inline" id="layer8">
   <path fill="#ffffff" fill-rule="evenodd" stroke="#000000" stroke-width="1px" id="path3312" d="m170.810303,51.846863l-9.930634,-31.775177c-1.807983,0.651428 -3.998825,-0.329285 -3.914322,-2.272827l0.126266,-2.904205c4.114136,-1.910492 7.567963,-2.79541 10.985413,-3.788055c0,0 0.638062,1.107483 1.136414,2.967316c0.530029,1.978058 0.505096,3.598663 0.505096,3.598663l-2.399109,1.010162l9.97525,30.98056c-1.703918,0.868286 -4.536102,2.001373 -6.484375,2.183563z"/>
  </g>
 </g>
</svg>